<svg id="svg" version="1.1" xmlns="http://www.w3.org/2000/svg" xmlns:xlink="http://www.w3.org/1999/xlink" width="400" height="400" viewBox="0, 0, 400,400"><g id="svgg"><path id="path0" d="M0.000 200.000 L 0.000 400.000 200.000 400.000 L 400.000 400.000 400.000 200.000 L 400.000 0.000 200.000 0.000 L 0.000 0.000 0.000 200.000 M217.448 36.768 C 217.689 37.009,218.703 38.789,219.701 40.723 C 222.350 45.854,222.250 45.811,224.830 42.919 C 230.095 37.016,231.025 40.669,229.207 60.104 C 228.777 64.698,228.350 65.026,224.171 63.974 C 218.146 62.457,212.531 62.373,206.545 63.712 C 202.114 64.704,201.029 64.537,200.268 62.750 C 199.662 61.328,200.100 45.238,200.806 43.016 C 201.404 41.132,203.165 42.040,206.277 45.837 C 208.393 48.420,208.330 48.483,214.331 37.851 C 215.212 36.291,216.519 35.836,217.448 36.768 M212.854 71.195 C 223.524 72.683,231.935 77.427,239.141 86.021 C 244.117 91.956,245.947 96.923,246.775 106.738 C 247.194 111.705,247.453 114.446,247.576 115.207 C 247.655 115.696,248.165 116.374,249.573 117.862 C 254.184 122.735,255.141 127.122,253.412 135.459 C 251.870 142.895,249.130 147.741,244.922 150.476 C 242.832 151.834,242.482 152.694,243.262 154.560 C 243.655 155.502,243.624 156.371,243.160 157.393 C 242.603 158.622,242.412 160.146,242.262 164.558 L 242.130 168.472 242.647 169.030 C 243.271 169.704,243.296 170.101,242.755 170.722 C 241.912 171.689,241.819 172.119,241.684 175.704 C 241.553 179.172,241.556 179.209,242.065 180.454 C 242.712 182.036,242.707 182.321,242.017 183.107 C 241.361 183.854,241.316 184.149,241.005 189.648 C 240.817 192.988,240.828 193.562,241.098 194.312 C 241.499 195.423,241.487 195.863,241.022 197.112 C 240.510 198.484,240.107 204.707,240.439 206.093 C 240.617 206.835,240.601 207.209,240.356 208.052 C 239.951 209.444,239.834 214.125,240.195 214.490 C 240.384 214.680,241.721 214.782,245.371 214.886 C 257.141 215.221,259.488 215.583,261.394 217.355 C 263.021 218.868,262.915 220.087,260.545 227.148 C 259.807 229.351,258.661 232.850,258.000 234.925 C 256.096 240.896,255.430 241.947,253.022 242.775 C 251.019 243.464,251.120 243.208,250.678 248.730 C 248.871 271.315,245.649 292.355,243.332 296.701 C 240.946 301.177,230.302 304.432,214.355 305.561 C 211.992 305.728,209.751 305.907,209.375 305.958 C 205.172 306.533,197.575 306.272,189.355 305.271 C 186.777 304.957,183.569 304.604,182.227 304.485 C 172.051 303.589,159.814 298.446,157.619 294.143 C 156.572 292.093,153.725 277.609,152.454 267.871 C 152.173 265.723,151.640 261.768,151.269 259.082 C 150.899 256.396,150.499 253.145,150.383 251.855 C 149.874 246.245,150.012 246.576,147.807 245.671 C 145.327 244.653,144.548 243.791,143.689 241.113 C 141.683 234.860,139.692 225.938,139.966 224.426 C 140.523 221.340,143.961 220.226,157.422 218.768 C 159.996 218.489,159.880 218.708,160.056 213.771 L 160.200 209.752 159.690 209.016 C 159.024 208.056,159.044 207.799,159.885 206.436 C 160.657 205.185,160.622 205.384,161.234 198.686 C 161.571 195.000,161.514 194.620,160.590 194.422 C 159.433 194.175,159.151 193.968,159.216 193.413 C 159.278 192.878,159.581 192.654,160.898 192.173 C 161.802 191.842,162.029 191.254,162.301 188.537 L 162.539 186.155 162.031 185.046 C 161.392 183.650,161.396 183.515,162.095 183.018 C 162.880 182.459,163.010 181.913,163.400 177.524 L 163.739 173.700 163.315 172.823 C 162.794 171.748,162.786 171.445,163.263 171.012 C 164.221 170.146,164.964 163.665,164.270 162.232 C 163.769 161.198,163.770 161.086,164.278 160.626 C 164.994 159.979,165.222 159.275,165.722 156.173 C 166.423 151.834,166.491 152.070,164.160 150.785 C 151.341 143.721,151.624 123.611,164.668 114.680 C 166.324 113.546,166.501 113.266,166.903 111.151 C 167.058 110.335,167.667 108.026,168.256 106.020 C 175.512 81.306,192.157 68.308,212.854 71.195 " stroke="none" fill="#cc837b" fill-rule="evenodd"></path><path id="path1" d="M240.817 216.608 C 240.688 216.849,240.539 217.319,240.487 217.652 C 240.169 219.672,238.760 220.392,234.961 220.476 C 232.085 220.539,223.733 220.878,217.480 221.185 C 214.365 221.338,209.663 221.515,207.031 221.579 C 204.399 221.643,201.895 221.739,201.465 221.792 C 201.035 221.846,196.421 221.972,191.211 222.072 C 181.917 222.251,165.048 222.909,163.246 223.163 C 161.687 223.382,160.319 222.670,160.063 221.505 C 159.716 219.923,157.635 219.812,150.781 221.010 C 140.106 222.875,140.418 222.463,142.584 231.836 C 144.964 242.135,145.503 243.270,148.613 244.523 C 149.587 244.916,150.382 245.380,150.673 245.727 C 151.182 246.332,151.229 246.577,151.563 250.391 C 151.680 251.733,152.031 254.634,152.343 256.836 C 152.655 259.038,153.225 263.301,153.610 266.309 C 155.029 277.395,157.711 291.214,158.902 293.580 C 160.819 297.386,172.929 302.302,182.431 303.132 C 183.769 303.249,186.929 303.600,189.453 303.911 C 197.401 304.892,205.107 305.168,208.887 304.607 C 209.669 304.491,214.221 304.148,216.895 304.003 C 222.956 303.675,231.355 301.937,236.227 300.001 C 241.284 297.992,241.978 297.280,243.163 292.871 C 245.556 283.965,247.341 271.194,249.308 248.890 C 249.883 242.382,249.927 242.267,252.105 241.677 C 254.558 241.013,254.900 240.383,257.801 231.185 C 258.676 228.409,259.656 225.476,259.977 224.665 C 262.874 217.373,261.814 216.769,245.281 216.293 L 241.051 216.171 240.817 216.608 " stroke="none" fill="#a9b1c1" fill-rule="evenodd"></path><path id="path2" d="M191.575 78.480 C 184.880 81.843,180.245 88.184,182.805 90.479 C 184.101 91.640,185.082 91.136,186.860 88.393 C 188.297 86.177,190.777 83.521,192.990 81.826 C 197.002 78.755,195.955 76.279,191.575 78.480 M214.844 83.133 C 199.821 84.219,191.514 90.605,183.756 107.031 C 181.619 111.556,181.627 111.623,184.536 113.063 C 191.609 116.566,195.917 124.751,194.629 132.244 C 192.498 144.642,184.077 152.381,172.656 152.436 C 168.760 152.455,167.683 152.694,167.391 153.604 C 166.665 155.869,165.118 169.613,165.343 171.803 C 165.412 172.473,165.391 172.850,165.291 172.711 C 165.189 172.568,164.945 174.448,164.680 177.432 C 164.437 180.159,164.185 182.719,164.120 183.120 C 164.035 183.646,164.065 183.811,164.227 183.710 C 164.381 183.615,164.452 183.777,164.450 184.217 C 164.447 185.089,164.252 185.762,164.040 185.631 C 163.945 185.572,163.868 185.639,163.869 185.779 C 163.870 185.920,163.724 187.383,163.543 189.031 C 163.281 191.421,163.265 192.057,163.461 192.178 C 163.639 192.288,163.669 192.633,163.568 193.435 C 163.463 194.282,163.374 194.494,163.189 194.340 C 163.003 194.186,162.920 194.442,162.828 195.459 C 162.763 196.184,162.582 198.140,162.426 199.805 C 161.937 205.025,161.889 205.859,162.080 205.859 C 162.572 205.859,162.347 208.189,161.802 208.733 C 161.647 208.889,161.515 209.417,161.505 209.926 C 161.331 218.676,161.152 219.522,159.408 219.849 C 158.753 219.972,158.731 219.998,159.123 220.173 C 159.358 220.277,159.690 220.681,159.862 221.070 C 160.376 222.233,160.458 222.344,161.151 222.822 C 161.742 223.230,161.958 223.267,163.086 223.158 C 166.007 222.875,182.225 222.248,191.113 222.075 C 196.377 221.973,201.035 221.845,201.465 221.792 C 201.895 221.739,204.399 221.643,207.031 221.579 C 209.663 221.515,214.365 221.338,217.480 221.185 C 223.733 220.878,232.085 220.539,234.961 220.476 C 238.766 220.392,240.168 219.673,240.488 217.643 C 240.542 217.305,240.674 216.871,240.782 216.678 C 240.947 216.382,240.859 216.273,240.216 215.985 C 239.796 215.798,239.453 215.565,239.453 215.469 C 239.453 215.373,239.267 215.083,239.039 214.825 C 238.641 214.374,238.629 214.230,238.749 211.230 C 238.925 206.799,239.226 200.785,239.371 198.779 C 239.479 197.289,239.454 197.070,239.181 197.070 C 238.842 197.070,238.805 196.791,238.992 195.658 C 239.058 195.257,239.189 194.977,239.283 195.035 C 239.495 195.166,239.468 195.333,239.572 193.262 C 239.621 192.295,239.790 189.514,239.948 187.082 C 240.286 181.872,240.283 181.978,240.060 182.116 C 239.819 182.265,239.648 181.750,239.651 180.892 C 239.655 180.104,239.896 179.576,240.175 179.748 C 240.280 179.813,240.369 178.673,240.390 176.990 C 240.410 175.412,240.483 173.375,240.553 172.463 C 240.669 170.942,240.653 170.828,240.359 171.071 C 240.009 171.362,239.936 171.158,240.016 170.117 C 240.079 169.286,240.207 169.070,240.496 169.310 C 240.706 169.484,240.795 168.607,240.988 164.486 C 241.118 161.716,241.280 159.103,241.348 158.681 C 241.467 157.951,241.456 157.930,241.133 158.254 C 240.666 158.720,240.684 158.758,240.645 157.204 C 240.602 155.510,240.915 154.361,241.327 154.703 C 241.559 154.896,241.601 154.679,241.599 153.295 C 241.597 152.214,241.534 151.757,241.414 151.947 C 240.754 152.991,240.674 143.714,241.220 129.297 C 241.863 112.319,239.329 99.040,234.175 92.377 C 228.750 85.364,222.871 82.553,214.844 83.133 M164.347 118.822 C 160.923 120.416,157.148 129.005,158.650 131.784 C 159.601 133.543,161.892 133.184,162.178 131.231 C 162.231 130.865,162.363 129.918,162.471 129.125 C 162.636 127.904,162.954 127.100,164.548 123.866 C 166.635 119.632,166.794 119.165,166.313 118.684 C 165.879 118.251,165.519 118.276,164.347 118.822 M237.441 118.868 C 239.406 120.323,238.445 122.028,235.800 121.780 C 233.862 121.598,233.275 121.838,233.005 122.924 C 232.468 125.075,232.327 125.467,231.798 126.265 C 230.095 128.837,227.549 128.218,226.544 124.989 C 225.541 121.767,226.720 119.935,230.477 118.874 C 232.804 118.217,236.557 118.214,237.441 118.868 M209.841 120.327 C 213.159 121.163,212.451 123.080,208.758 123.265 C 207.432 123.331,206.108 123.498,205.814 123.636 C 205.243 123.905,205.235 123.921,204.777 125.689 C 203.453 130.801,198.175 129.736,198.151 124.352 L 198.145 122.824 198.954 122.069 C 200.509 120.618,206.922 119.592,209.841 120.327 M229.160 142.569 C 230.099 142.858,230.511 143.596,230.011 144.096 C 229.575 144.532,221.119 144.641,220.550 144.218 C 218.792 142.909,225.858 141.557,229.160 142.569 M232.520 301.172 C 232.273 301.278,232.237 301.340,232.422 301.340 C 232.583 301.340,232.891 301.264,233.105 301.172 C 233.352 301.066,233.388 301.004,233.203 301.004 C 233.042 301.004,232.734 301.080,232.520 301.172 M213.821 304.240 C 214.064 304.286,214.415 304.285,214.602 304.236 C 214.789 304.187,214.590 304.149,214.160 304.151 C 213.730 304.153,213.578 304.193,213.821 304.240 M210.986 304.432 C 211.174 304.481,211.482 304.481,211.670 304.432 C 211.858 304.382,211.704 304.342,211.328 304.342 C 210.952 304.342,210.798 304.382,210.986 304.432 " stroke="none" fill="#97ab97" fill-rule="evenodd"></path><path id="path3" d="M204.395 72.089 C 193.776 72.957,185.393 77.813,178.414 87.139 C 173.927 93.133,169.354 103.820,167.966 111.550 C 167.569 113.762,167.257 114.225,165.162 115.710 C 153.217 124.177,152.589 142.868,164.029 149.414 C 166.790 150.994,167.013 151.169,167.407 152.061 C 167.828 153.012,167.884 153.040,168.688 152.692 C 169.043 152.539,170.420 152.447,172.559 152.436 C 182.813 152.379,191.394 145.609,193.936 135.571 C 195.131 130.852,195.189 129.035,194.257 125.612 C 192.532 119.284,189.690 115.615,184.536 113.063 C 181.627 111.623,181.619 111.556,183.756 107.031 C 190.204 93.378,197.107 86.702,207.282 84.280 C 218.092 81.707,225.278 83.108,230.981 88.903 C 239.030 97.082,241.997 108.785,241.220 129.297 C 240.870 138.552,240.753 151.014,241.010 151.660 L 241.244 152.246 241.603 151.551 C 241.875 151.026,242.339 150.654,243.511 150.024 C 248.036 147.588,250.883 142.705,252.450 134.691 C 253.966 126.938,252.926 122.682,248.404 118.143 C 246.370 116.100,246.442 116.422,245.593 105.664 C 245.163 100.215,243.400 94.068,241.301 90.700 C 233.519 78.214,219.005 70.895,204.395 72.089 M195.151 78.058 C 196.049 78.870,195.421 79.966,192.990 81.826 C 190.777 83.521,188.297 86.177,186.860 88.393 C 184.788 91.589,182.657 91.950,182.041 89.209 C 181.175 85.346,192.530 75.686,195.151 78.058 M166.313 118.684 C 166.794 119.165,166.635 119.632,164.548 123.866 C 162.954 127.100,162.636 127.904,162.471 129.125 C 162.363 129.918,162.231 130.865,162.178 131.231 C 161.892 133.184,159.601 133.543,158.650 131.784 C 156.643 128.070,163.676 116.047,166.313 118.684 M232.129 118.486 C 227.334 119.203,225.432 121.417,226.544 124.989 C 227.549 128.218,230.095 128.837,231.798 126.265 C 232.327 125.467,232.468 125.075,233.005 122.924 C 233.275 121.838,233.862 121.598,235.800 121.780 C 237.463 121.936,237.917 121.778,238.272 120.920 C 239.042 119.061,236.094 117.892,232.129 118.486 M204.297 120.341 C 201.667 120.582,199.953 121.137,198.954 122.069 L 198.145 122.824 198.151 124.352 C 198.175 129.736,203.453 130.801,204.777 125.689 C 205.235 123.921,205.243 123.905,205.814 123.636 C 206.108 123.498,207.432 123.331,208.758 123.265 C 211.394 123.133,212.092 122.797,211.804 121.799 C 211.370 120.296,209.254 119.885,204.297 120.341 M222.754 142.449 C 220.821 142.946,219.868 143.710,220.550 144.218 C 221.119 144.641,229.575 144.532,230.011 144.096 C 231.336 142.771,226.114 141.586,222.754 142.449 M240.840 155.116 C 240.530 156.055,240.591 158.594,240.921 158.468 C 241.748 158.150,242.099 155.690,241.433 154.868 L 241.070 154.419 240.840 155.116 M240.146 169.363 C 240.034 169.684,239.967 170.468,240.009 170.978 C 240.058 171.587,240.820 170.773,240.820 170.111 C 240.820 169.497,240.301 168.920,240.146 169.363 M165.138 171.871 C 165.070 172.084,165.106 172.413,165.217 172.603 C 165.381 172.886,165.419 172.814,165.424 172.217 C 165.430 171.407,165.325 171.280,165.138 171.871 M239.767 179.996 C 239.429 180.878,239.720 182.377,240.160 182.012 C 240.583 181.661,240.480 179.688,240.039 179.688 C 239.955 179.688,239.832 179.827,239.767 179.996 M164.111 183.816 C 163.826 184.104,163.782 185.471,164.053 185.638 C 164.265 185.770,164.519 184.638,164.421 183.998 C 164.368 183.653,164.307 183.618,164.111 183.816 M163.093 192.565 C 162.807 193.099,162.842 194.052,163.157 194.314 C 163.406 194.520,163.672 193.559,163.672 192.453 C 163.672 192.063,163.326 192.130,163.093 192.565 M238.997 195.625 C 238.809 196.765,238.839 197.070,239.139 197.070 C 239.669 197.070,239.834 195.836,239.386 195.223 C 239.146 194.895,239.112 194.930,238.997 195.625 M161.750 206.357 C 161.391 207.144,161.499 208.594,161.916 208.594 C 162.108 208.594,162.491 206.453,162.359 206.110 C 162.211 205.724,161.999 205.810,161.750 206.357 " stroke="none" fill="#6b736c" fill-rule="evenodd"></path><path id="path4" d="M215.192 40.576 C 214.914 40.872,213.574 42.982,212.215 45.266 C 209.340 50.095,209.079 50.439,208.290 50.440 C 207.690 50.440,207.711 50.460,205.051 47.285 C 203.797 45.787,203.536 45.607,202.869 45.774 C 201.981 45.997,201.884 46.840,201.895 54.221 C 201.909 62.888,201.837 62.737,205.516 61.804 C 211.760 60.222,218.469 59.981,223.498 61.158 C 226.634 61.893,226.635 61.891,227.155 54.395 C 227.631 47.533,227.647 45.644,227.232 45.229 C 226.752 44.749,226.631 44.820,224.935 46.559 C 222.201 49.364,221.792 49.222,219.543 44.677 C 217.234 40.010,216.435 39.257,215.192 40.576 " stroke="none" fill="#cfcbab" fill-rule="evenodd"></path><path id="path5" d="M239.478 214.359 C 238.875 216.028,239.334 216.139,247.949 216.402 C 261.610 216.821,262.776 217.621,259.977 224.665 C 259.656 225.476,258.676 228.409,257.801 231.185 C 254.900 240.383,254.558 241.013,252.105 241.677 C 249.927 242.267,249.883 242.382,249.308 248.890 C 246.752 277.866,243.921 294.841,241.214 297.429 C 238.452 300.069,227.935 303.083,218.652 303.896 C 204.338 305.150,199.006 305.152,189.453 303.906 C 187.788 303.689,184.976 303.377,183.204 303.214 C 172.780 302.250,160.897 297.540,158.902 293.580 C 157.711 291.214,155.029 277.395,153.610 266.309 C 153.225 263.301,152.655 259.038,152.343 256.836 C 152.031 254.634,151.680 251.733,151.563 250.391 C 151.229 246.577,151.182 246.332,150.673 245.727 C 150.382 245.380,149.587 244.916,148.613 244.523 C 145.503 243.270,144.964 242.135,142.584 231.836 C 141.038 225.143,140.989 224.206,142.133 223.188 C 143.154 222.279,150.021 220.864,156.055 220.319 C 159.971 219.966,161.355 219.361,160.475 218.388 C 160.300 218.194,160.156 217.911,160.155 217.758 C 160.155 217.596,159.971 217.707,159.716 218.024 C 159.320 218.515,159.098 218.586,157.422 218.768 C 143.969 220.223,140.523 221.340,139.966 224.426 C 139.692 225.938,141.683 234.860,143.689 241.113 C 144.548 243.791,145.327 244.653,147.807 245.671 C 150.012 246.576,149.874 246.245,150.383 251.855 C 150.499 253.145,150.899 256.396,151.269 259.082 C 151.640 261.768,152.173 265.723,152.454 267.871 C 153.725 277.609,156.572 292.093,157.619 294.143 C 159.814 298.446,172.051 303.589,182.227 304.485 C 183.569 304.604,186.777 304.957,189.355 305.271 C 197.575 306.272,205.172 306.533,209.375 305.958 C 209.751 305.907,211.992 305.728,214.355 305.561 C 230.302 304.432,240.946 301.177,243.332 296.701 C 245.649 292.355,248.871 271.315,250.678 248.730 C 251.120 243.208,251.019 243.464,253.022 242.775 C 255.430 241.947,256.096 240.896,258.000 234.925 C 258.661 232.850,259.807 229.351,260.545 227.148 C 264.274 216.038,263.465 215.344,246.289 214.926 C 240.863 214.795,240.039 214.696,240.039 214.177 C 240.039 213.603,239.713 213.709,239.478 214.359 " stroke="none" fill="#b19491" fill-rule="evenodd"></path><path id="path6" d="M206.548 71.056 C 206.515 71.089,205.930 71.151,205.246 71.195 C 203.644 71.297,201.109 71.590,200.195 71.778 C 199.927 71.834,199.443 71.930,199.121 71.993 C 198.799 72.055,198.447 72.128,198.340 72.155 C 198.232 72.182,197.881 72.271,197.559 72.351 C 196.719 72.561,195.273 73.051,194.876 73.260 C 194.689 73.357,194.414 73.438,194.265 73.438 C 194.115 73.438,193.884 73.569,193.750 73.730 C 193.616 73.892,193.339 74.023,193.135 74.023 C 192.665 74.023,189.432 75.707,189.290 76.025 C 189.255 76.106,189.105 76.172,188.958 76.172 C 188.811 76.172,188.621 76.282,188.535 76.416 C 188.449 76.550,188.071 76.832,187.695 77.042 C 187.320 77.252,186.810 77.625,186.564 77.872 C 186.317 78.118,186.044 78.320,185.957 78.320 C 185.870 78.320,185.578 78.518,185.308 78.760 C 185.038 79.001,184.262 79.683,183.584 80.273 C 181.975 81.676,181.560 82.090,180.273 83.575 C 179.683 84.257,179.110 84.914,179.000 85.034 C 178.890 85.155,178.454 85.737,178.030 86.328 C 177.606 86.919,177.212 87.446,177.155 87.500 C 177.098 87.554,176.747 88.037,176.375 88.574 C 176.003 89.111,175.630 89.580,175.545 89.616 C 175.460 89.652,175.391 89.832,175.391 90.016 C 175.391 90.201,175.293 90.450,175.173 90.569 C 174.726 91.017,171.901 96.678,170.858 99.219 C 170.748 99.487,170.580 99.860,170.485 100.046 C 170.390 100.233,170.313 100.469,170.313 100.571 C 170.313 100.672,170.210 101.003,170.085 101.306 C 169.959 101.608,169.842 101.899,169.824 101.953 C 169.806 102.007,169.689 102.297,169.565 102.598 C 169.440 102.899,169.295 103.391,169.242 103.691 C 169.189 103.992,169.013 104.556,168.850 104.944 C 168.688 105.333,168.555 105.830,168.555 106.048 C 168.555 106.267,168.485 106.445,168.401 106.445 C 168.316 106.445,168.226 106.728,168.199 107.072 C 168.173 107.417,168.045 107.768,167.914 107.851 C 167.783 107.934,167.732 108.003,167.802 108.005 C 167.911 108.007,167.809 108.573,167.475 109.814 C 167.294 110.487,167.173 111.044,167.082 111.621 C 166.880 112.902,166.649 113.505,166.270 113.733 C 166.126 113.820,166.057 113.971,166.117 114.069 C 166.178 114.166,166.004 114.302,165.731 114.371 C 165.458 114.439,165.234 114.574,165.234 114.670 C 165.234 114.765,165.140 114.844,165.025 114.844 C 164.910 114.844,164.701 114.954,164.561 115.088 C 164.420 115.222,164.102 115.464,163.854 115.625 C 162.894 116.248,159.883 119.430,159.267 120.473 C 159.065 120.815,158.841 121.094,158.770 121.094 C 158.698 121.094,158.588 121.248,158.525 121.436 C 158.461 121.624,158.328 121.909,158.228 122.070 C 157.516 123.220,155.824 127.152,155.874 127.539 C 155.881 127.593,155.793 127.883,155.679 128.184 C 155.564 128.485,155.427 128.968,155.374 129.258 C 155.321 129.548,155.230 130.005,155.173 130.273 C 154.865 131.704,154.773 134.098,154.966 135.645 C 155.189 137.435,155.261 137.843,155.535 138.867 C 155.985 140.547,156.133 140.941,156.961 142.670 C 157.268 143.311,157.607 143.946,157.715 144.079 C 157.822 144.213,158.020 144.454,158.154 144.614 C 158.289 144.774,158.398 144.957,158.398 145.019 C 158.398 145.500,161.456 148.750,162.451 149.326 C 162.800 149.528,163.086 149.763,163.086 149.847 C 163.086 149.931,163.189 150.000,163.315 150.000 C 163.441 150.000,163.682 150.117,163.852 150.260 C 164.327 150.660,165.954 151.208,166.450 151.135 C 166.806 151.082,166.624 150.918,165.527 150.305 C 152.601 143.075,152.407 124.751,165.162 115.710 C 167.257 114.225,167.569 113.762,167.966 111.550 C 170.376 98.126,178.225 84.744,187.649 77.992 C 204.141 66.177,229.805 72.256,241.301 90.700 C 243.400 94.068,245.163 100.215,245.593 105.664 C 246.442 116.422,246.370 116.100,248.404 118.143 C 252.926 122.682,253.966 126.938,252.450 134.691 C 250.994 142.137,248.117 147.402,244.313 149.584 C 243.555 150.019,243.454 150.143,243.682 150.356 C 243.967 150.622,244.727 150.496,244.727 150.182 C 244.727 150.082,244.845 150.000,244.991 150.000 C 245.425 150.000,249.414 145.841,249.414 145.388 C 249.414 145.257,249.480 145.120,249.561 145.085 C 249.691 145.028,250.194 144.029,251.563 141.113 C 251.765 140.684,252.018 139.980,252.124 139.551 C 252.283 138.909,252.807 136.839,253.014 136.035 C 253.245 135.137,253.325 134.762,253.431 134.082 C 253.649 132.691,253.725 132.141,253.790 131.488 C 253.825 131.136,253.895 130.806,253.945 130.755 C 254.190 130.510,253.887 126.413,253.536 125.241 C 253.431 124.889,253.340 124.560,253.333 124.508 C 253.275 124.073,253.024 123.442,252.404 122.168 C 251.503 120.318,250.801 119.381,248.764 117.313 C 247.476 116.005,247.318 115.688,247.170 114.112 C 247.112 113.494,247.016 112.505,246.957 111.914 C 246.828 110.620,246.754 109.773,246.594 107.715 C 246.395 105.171,246.125 102.611,245.981 101.894 C 245.933 101.658,245.852 101.245,245.801 100.977 C 245.585 99.853,245.515 99.562,245.106 98.107 C 244.871 97.268,244.659 96.494,244.635 96.387 C 244.611 96.279,244.490 95.944,244.366 95.642 C 244.242 95.339,244.141 95.001,244.141 94.890 C 244.141 94.674,243.685 93.575,243.263 92.773 C 243.121 92.505,242.851 91.978,242.661 91.602 C 242.472 91.226,242.241 90.786,242.149 90.625 C 242.056 90.464,241.929 90.178,241.866 89.990 C 241.803 89.802,241.674 89.648,241.579 89.648 C 241.484 89.648,241.406 89.517,241.406 89.355 C 241.406 89.194,241.340 89.062,241.260 89.061 C 241.179 89.060,240.894 88.733,240.625 88.334 C 240.356 87.935,240.005 87.468,239.844 87.296 C 239.683 87.124,239.287 86.646,238.965 86.234 C 238.643 85.822,238.061 85.162,237.673 84.768 C 237.285 84.374,236.814 83.818,236.626 83.532 C 236.439 83.245,236.194 83.068,236.081 83.137 C 235.969 83.207,235.929 83.180,235.992 83.077 C 236.134 82.847,233.967 80.793,232.623 79.883 C 232.385 79.722,232.030 79.458,231.834 79.297 C 231.076 78.674,228.542 76.953,228.383 76.953 C 228.331 76.953,227.830 76.649,227.270 76.277 C 226.710 75.905,225.728 75.373,225.089 75.095 C 223.281 74.309,222.792 74.095,222.266 73.862 C 221.729 73.625,219.439 72.858,218.896 72.734 C 218.708 72.691,218.379 72.612,218.164 72.559 C 217.949 72.505,217.598 72.417,217.383 72.363 C 216.724 72.199,216.139 72.071,215.544 71.962 C 215.231 71.905,214.923 71.827,214.860 71.790 C 214.707 71.698,212.092 71.352,210.254 71.179 C 208.967 71.058,206.624 70.980,206.548 71.056 " stroke="none" fill="#a7746d" fill-rule="evenodd"></path><path id="path7" d="M202.734 71.118 C 192.139 72.337,181.293 79.536,175.721 89.046 C 175.137 90.044,175.633 89.713,176.365 88.618 C 176.740 88.057,177.094 87.554,177.153 87.500 C 177.211 87.446,177.606 86.919,178.030 86.328 C 178.454 85.737,178.890 85.155,179.000 85.034 C 179.110 84.914,179.683 84.257,180.273 83.575 C 181.560 82.090,181.975 81.676,183.584 80.273 C 184.262 79.683,185.038 79.001,185.308 78.760 C 185.578 78.518,185.870 78.320,185.957 78.320 C 186.044 78.320,186.317 78.118,186.564 77.872 C 186.810 77.625,187.320 77.252,187.695 77.042 C 188.071 76.832,188.449 76.550,188.535 76.416 C 188.621 76.282,188.811 76.172,188.958 76.172 C 189.105 76.172,189.255 76.106,189.290 76.025 C 189.432 75.707,192.665 74.023,193.135 74.023 C 193.339 74.023,193.616 73.892,193.750 73.730 C 193.884 73.569,194.115 73.438,194.265 73.438 C 194.414 73.438,194.689 73.357,194.876 73.260 C 195.273 73.051,196.719 72.561,197.559 72.351 C 197.881 72.271,198.232 72.182,198.340 72.155 C 198.447 72.128,198.799 72.055,199.121 71.993 C 199.443 71.930,199.927 71.833,200.195 71.778 C 200.464 71.722,201.079 71.628,201.563 71.570 C 202.046 71.511,202.793 71.420,203.223 71.368 C 203.652 71.315,204.563 71.237,205.246 71.194 C 205.930 71.151,206.537 71.067,206.597 71.007 C 206.751 70.853,204.467 70.918,202.734 71.118 M207.473 71.039 C 207.770 71.083,208.210 71.082,208.450 71.036 C 208.690 70.990,208.447 70.953,207.910 70.954 C 207.373 70.956,207.177 70.994,207.473 71.039 M209.233 71.017 C 209.298 71.082,209.774 71.165,210.291 71.203 C 211.753 71.308,214.685 71.685,214.860 71.790 C 214.923 71.827,215.231 71.905,215.544 71.962 C 216.139 72.071,216.724 72.199,217.383 72.363 C 217.598 72.417,217.949 72.505,218.164 72.559 C 218.379 72.612,218.708 72.691,218.896 72.734 C 219.439 72.858,221.729 73.625,222.266 73.862 C 222.792 74.095,223.281 74.309,225.089 75.095 C 225.728 75.373,226.710 75.905,227.270 76.277 C 227.830 76.649,228.331 76.953,228.383 76.953 C 228.542 76.953,231.076 78.674,231.834 79.297 C 232.030 79.458,232.387 79.722,232.627 79.883 C 232.867 80.044,233.380 80.461,233.768 80.810 C 234.156 81.158,234.544 81.444,234.631 81.444 C 234.718 81.445,234.726 81.547,234.649 81.671 C 234.570 81.799,234.595 81.844,234.708 81.774 C 234.923 81.641,236.066 82.807,235.980 83.071 C 235.951 83.160,236.008 83.182,236.107 83.122 C 236.205 83.061,236.439 83.245,236.626 83.532 C 236.814 83.818,237.285 84.374,237.673 84.768 C 238.061 85.162,238.643 85.822,238.965 86.234 C 239.287 86.646,239.683 87.124,239.844 87.296 C 240.005 87.468,240.356 87.935,240.625 88.334 C 240.894 88.733,241.179 89.060,241.260 89.061 C 241.340 89.062,241.406 89.194,241.406 89.355 C 241.406 89.517,241.484 89.648,241.579 89.648 C 241.674 89.648,241.803 89.802,241.866 89.990 C 241.929 90.178,242.056 90.464,242.149 90.625 C 242.241 90.786,242.472 91.226,242.661 91.602 C 242.851 91.978,243.121 92.505,243.263 92.773 C 243.685 93.575,244.141 94.674,244.141 94.890 C 244.141 95.001,244.242 95.339,244.366 95.642 C 244.490 95.944,244.611 96.279,244.635 96.387 C 244.659 96.494,244.871 97.268,245.106 98.107 C 245.515 99.562,245.585 99.853,245.801 100.977 C 245.852 101.245,245.933 101.658,245.981 101.894 C 246.125 102.611,246.395 105.171,246.594 107.715 C 246.754 109.773,246.828 110.620,246.957 111.914 C 247.016 112.505,247.112 113.494,247.170 114.112 C 247.318 115.688,247.476 116.005,248.764 117.313 C 250.170 118.740,251.138 119.896,251.697 120.811 C 252.117 121.501,253.136 123.665,253.209 124.023 C 253.220 124.077,253.298 124.231,253.384 124.365 C 253.469 124.500,253.496 124.609,253.443 124.609 C 253.391 124.609,253.433 124.895,253.537 125.244 C 253.830 126.223,253.936 127.110,253.958 128.762 C 253.969 129.605,254.047 130.169,254.134 130.032 C 254.554 129.371,254.112 125.805,253.340 123.624 C 252.562 121.424,251.708 120.118,249.573 117.862 C 248.165 116.374,247.655 115.696,247.576 115.207 C 247.453 114.446,247.194 111.705,246.775 106.738 C 245.822 95.433,243.330 89.901,235.758 82.278 C 230.981 77.469,224.311 73.776,217.304 72.060 C 213.988 71.249,208.793 70.577,209.233 71.017 M174.951 90.286 C 172.509 94.011,167.435 106.445,168.356 106.445 C 168.465 106.445,168.555 106.267,168.555 106.048 C 168.555 105.830,168.688 105.333,168.850 104.944 C 169.013 104.556,169.189 103.992,169.242 103.691 C 169.295 103.391,169.440 102.899,169.565 102.598 C 169.689 102.297,169.806 102.007,169.824 101.953 C 169.842 101.899,169.959 101.608,170.085 101.306 C 170.210 101.003,170.313 100.672,170.313 100.571 C 170.313 100.469,170.390 100.233,170.485 100.046 C 170.580 99.860,170.748 99.487,170.858 99.219 C 171.881 96.728,174.629 91.210,175.173 90.555 C 175.313 90.386,175.393 90.145,175.351 90.019 C 175.309 89.892,175.131 90.010,174.951 90.286 M167.969 106.918 C 167.969 107.070,167.915 107.334,167.850 107.504 C 167.785 107.673,167.819 107.813,167.926 107.813 C 168.032 107.813,168.158 107.549,168.206 107.227 C 168.253 106.904,168.219 106.641,168.130 106.641 C 168.041 106.641,167.969 106.765,167.969 106.918 M167.204 109.741 C 166.980 110.694,166.797 111.615,166.797 111.788 C 166.797 112.784,166.151 113.664,164.681 114.671 C 159.211 118.417,154.688 126.285,154.688 132.056 C 154.688 133.131,154.837 132.957,154.966 131.731 C 155.022 131.198,155.115 130.542,155.173 130.273 C 155.230 130.005,155.321 129.548,155.374 129.258 C 155.427 128.968,155.564 128.485,155.679 128.184 C 155.793 127.883,155.881 127.593,155.874 127.539 C 155.824 127.152,157.516 123.220,158.228 122.070 C 158.328 121.909,158.461 121.624,158.525 121.436 C 158.588 121.248,158.698 121.094,158.770 121.094 C 158.841 121.094,159.065 120.815,159.267 120.473 C 159.883 119.430,162.894 116.248,163.854 115.625 C 164.102 115.464,164.420 115.222,164.561 115.088 C 164.701 114.954,164.910 114.844,165.025 114.844 C 165.140 114.844,165.234 114.765,165.234 114.670 C 165.234 114.574,165.458 114.439,165.731 114.371 C 166.004 114.302,166.178 114.166,166.117 114.069 C 166.057 113.971,166.126 113.820,166.270 113.733 C 166.649 113.505,166.880 112.902,167.082 111.621 C 167.173 111.044,167.294 110.487,167.475 109.814 C 167.824 108.518,167.907 108.008,167.769 108.008 C 167.682 108.008,167.428 108.788,167.204 109.741 M253.895 130.713 C 253.889 130.740,253.848 131.069,253.805 131.445 C 253.722 132.164,253.633 132.792,253.431 134.082 C 253.325 134.762,253.245 135.137,253.014 136.035 C 252.807 136.839,252.283 138.909,252.124 139.551 C 252.018 139.980,251.765 140.684,251.563 141.113 C 250.194 144.029,249.691 145.028,249.561 145.085 C 249.480 145.120,249.414 145.257,249.414 145.388 C 249.414 145.841,245.425 150.000,244.991 150.000 C 244.845 150.000,244.727 150.082,244.727 150.182 C 244.727 150.484,243.912 150.653,243.747 150.385 C 243.538 150.047,242.757 150.278,242.123 150.865 C 241.561 151.387,241.374 153.964,241.775 155.688 C 241.887 156.167,241.855 156.639,241.676 157.152 C 241.368 158.039,241.081 161.447,240.920 166.113 C 240.857 167.939,240.719 170.488,240.613 171.777 C 240.506 173.066,240.386 176.055,240.346 178.418 C 240.306 180.781,240.133 184.648,239.962 187.012 C 239.791 189.375,239.611 192.715,239.562 194.434 C 239.513 196.152,239.386 198.921,239.280 200.586 C 238.892 206.706,238.614 213.804,238.742 214.316 C 239.124 215.837,239.780 214.207,239.949 211.316 C 240.021 210.087,240.210 208.616,240.369 208.046 C 240.601 207.218,240.615 206.826,240.439 206.093 C 240.107 204.707,240.510 198.484,241.022 197.112 C 241.487 195.863,241.499 195.423,241.098 194.312 C 240.828 193.562,240.817 192.988,241.005 189.648 C 241.316 184.149,241.361 183.854,242.017 183.107 C 242.707 182.321,242.712 182.036,242.065 180.454 C 241.556 179.209,241.553 179.172,241.684 175.704 C 241.819 172.119,241.912 171.689,242.755 170.722 C 243.295 170.102,243.271 169.704,242.651 169.035 L 242.138 168.481 242.258 164.563 C 242.391 160.220,242.588 158.654,243.161 157.391 C 243.624 156.370,243.655 155.502,243.262 154.560 C 242.482 152.694,242.832 151.834,244.922 150.476 C 249.679 147.385,253.104 140.403,254.009 131.956 C 254.111 131.005,254.030 130.126,253.895 130.713 M154.737 133.691 C 154.739 134.121,154.779 134.274,154.826 134.031 C 154.872 133.788,154.871 133.436,154.822 133.250 C 154.773 133.063,154.735 133.262,154.737 133.691 M154.756 136.043 C 155.299 142.152,158.989 147.936,164.160 150.785 C 166.311 151.971,166.547 152.519,166.009 155.078 C 165.908 155.562,165.690 156.690,165.525 157.586 C 165.201 159.352,164.915 160.050,164.278 160.626 C 163.769 161.087,163.769 161.197,164.275 162.243 C 164.988 163.715,164.189 170.259,163.196 171.083 C 162.786 171.423,162.811 171.782,163.315 172.823 L 163.739 173.700 163.400 177.524 C 163.010 181.913,162.880 182.459,162.095 183.018 C 161.396 183.515,161.392 183.650,162.031 185.046 L 162.539 186.155 162.301 188.537 C 162.029 191.254,161.802 191.842,160.898 192.173 C 158.634 193.001,158.500 193.976,160.590 194.422 C 161.514 194.620,161.571 195.000,161.234 198.686 C 160.622 205.384,160.657 205.185,159.885 206.436 C 159.047 207.793,159.022 208.108,159.677 208.995 L 160.173 209.668 160.116 213.810 C 160.060 217.859,160.068 217.963,160.490 218.386 L 160.921 218.820 161.096 218.345 C 161.193 218.085,161.339 215.894,161.421 213.477 C 161.640 207.036,161.659 206.680,161.888 205.078 C 162.080 203.736,162.524 199.144,162.909 194.531 C 163.062 192.700,163.697 186.730,164.061 183.691 C 164.351 181.275,164.794 176.385,165.237 170.703 C 165.772 163.844,166.965 154.643,167.481 153.394 C 167.853 152.492,167.253 151.172,166.471 151.172 C 165.840 151.172,164.296 150.634,163.852 150.260 C 163.682 150.117,163.441 150.000,163.315 150.000 C 163.189 150.000,163.086 149.931,163.086 149.847 C 163.086 149.763,162.800 149.528,162.451 149.326 C 161.449 148.746,158.398 145.500,158.398 145.013 C 158.398 144.948,158.289 144.771,158.154 144.622 C 157.682 144.095,157.515 143.821,156.961 142.668 C 155.735 140.113,155.229 138.315,154.998 135.686 C 154.963 135.279,154.866 134.884,154.783 134.807 C 154.701 134.731,154.688 135.287,154.756 136.043 " stroke="none" fill="#a67c6c" fill-rule="evenodd"></path><path id="path8" d="M215.281 36.630 C 215.044 36.796,214.616 37.345,214.331 37.851 C 208.330 48.483,208.393 48.420,206.277 45.837 C 203.165 42.040,201.404 41.132,200.806 43.016 C 200.100 45.238,199.662 61.328,200.268 62.750 C 201.029 64.537,202.114 64.704,206.545 63.712 C 212.531 62.373,218.146 62.457,224.171 63.974 C 228.350 65.026,228.777 64.698,229.207 60.104 C 231.025 40.669,230.095 37.016,224.830 42.919 C 222.250 45.811,222.350 45.854,219.701 40.723 C 217.386 36.238,216.721 35.622,215.281 36.630 M217.369 40.767 C 217.699 41.168,218.677 42.927,219.543 44.677 C 221.792 49.222,222.201 49.364,224.935 46.559 C 226.631 44.820,226.752 44.749,227.232 45.229 C 227.647 45.644,227.631 47.533,227.155 54.395 C 226.635 61.891,226.634 61.893,223.498 61.158 C 218.469 59.981,211.760 60.222,205.516 61.804 C 201.837 62.737,201.909 62.888,201.895 54.221 C 201.884 46.840,201.981 45.997,202.869 45.774 C 203.536 45.607,203.797 45.787,205.051 47.285 C 208.771 51.725,208.289 51.861,212.215 45.266 C 215.595 39.587,216.061 39.181,217.369 40.767 " stroke="none" fill="#ccad7c" fill-rule="evenodd"></path></g></svg>